<svg xmlns="http://www.w3.org/2000/svg" width="375" viewBox="0 0 375 375" height="375" version="1.0"><path fill="#FC4368" d="M 187.441406 0.164062 C 83.886719 0.164062 -0.0546875 84.109375 -0.0546875 187.65625 C -0.0546875 287.648438 78.21875 369.335938 176.832031 374.839844 C 177.828125 362.835938 178.695312 352.113281 179.390625 343 C 181.511719 315.097656 158.292969 303.441406 146.394531 295.058594 C 76.632812 245.910156 115.226562 158.851562 118.84375 144.015625 C 121.414062 133.382812 148.824219 60.101562 187.449219 60.101562 C 226.070312 60.101562 253.492188 133.382812 256.054688 144.015625 C 259.679688 158.851562 298.222656 245.839844 228.503906 295.058594 C 216.636719 303.441406 193.546875 315.097656 195.675781 343 C 196.359375 352.105469 197.226562 362.832031 198.214844 374.824219 C 296.75 369.242188 374.945312 287.59375 374.945312 187.65625 C 374.945312 84.109375 290.992188 0.164062 187.441406 0.164062"/></svg>